<svg width="720" height="359" viewBox="0 0 720 359" fill="none" xmlns="http://www.w3.org/2000/svg">
<g clip-path="url(#clip0_1412_17520)">
<path d="M629.611 233.709C629.611 104.621 527.122 0 400.699 0C274.276 0 171.787 104.621 171.787 233.709V333.695H628.056L629.611 233.709Z" fill="#F2ECE5"/>
<path d="M610.294 329.768C610.294 329.768 125.742 323.084 63.7824 328.817C1.82233 334.549 -98.8931 353.868 238.194 357.673C578.95 361.527 681.803 349.648 696.091 348.209C710.378 346.77 773.407 335.451 610.294 329.768Z" fill="#8CACD2"/>
<path d="M113.302 202.217C113.302 202.217 99.7921 213.828 101.347 229.074C102.684 242.051 131.744 218.902 131.744 218.902L113.302 202.217Z" fill="#E8E7D1"/>
<path d="M126.812 210.438C126.812 210.438 111.237 204.169 103.437 226.074C103.437 226.074 85.5049 246.417 88.6393 274.567C91.7495 302.741 104.992 325.426 123.701 327.768C142.411 330.11 165.008 330.89 177.473 311.351C189.938 291.813 126.812 210.438 126.812 210.438Z" fill="#0F2043"/>
<path d="M128.124 318.084C146.267 318.084 160.975 296.504 160.975 269.883C160.975 243.263 146.267 221.683 128.124 221.683C109.981 221.683 95.2727 243.263 95.2727 269.883C95.2727 296.504 109.981 318.084 128.124 318.084Z" fill="#EBE3D5"/>
<path d="M130.213 256.76L134.222 228.318C134.32 227.683 134.028 227.098 133.591 226.976C131.793 226.488 129.97 226.244 128.124 226.244C126.277 226.244 124.43 226.488 122.657 226.976C122.219 227.098 121.952 227.708 122.025 228.318L126.01 256.784C126.083 257.37 126.471 257.76 126.884 257.687C127.298 257.589 127.711 257.565 128.124 257.565C128.537 257.565 128.95 257.613 129.363 257.687C129.752 257.76 130.14 257.37 130.213 256.76Z" fill="#0F2043"/>
<path d="M120.98 278.494L119.206 281.055C119.182 281.104 119.133 281.153 119.085 281.202L104.797 295.008C104.409 295.374 104.336 296.13 104.603 296.667C105.356 298.106 106.182 299.472 107.082 300.765C108.102 302.277 109.22 303.667 110.362 304.936C110.726 305.326 111.212 305.18 111.455 304.643L120.834 283.763C120.858 283.69 120.883 283.641 120.931 283.592L122.705 280.958C123.021 280.494 122.997 279.738 122.657 279.299C122.462 279.055 122.268 278.787 122.098 278.518C121.782 278.055 121.296 278.055 120.98 278.494Z" fill="#0F2043"/>
<path d="M135.656 261.956L137.041 259.955C137.065 259.907 137.114 259.858 137.163 259.809L151.887 245.588C152.252 245.222 152.349 244.49 152.082 243.978C151.207 242.246 150.235 240.588 149.166 239.026C148.242 237.685 147.295 236.441 146.274 235.294C145.91 234.88 145.4 235.002 145.157 235.563L135.413 257.272C135.389 257.345 135.364 257.394 135.316 257.443L133.979 259.443C133.688 259.907 133.688 260.614 134.004 261.053C134.198 261.321 134.368 261.59 134.538 261.882C134.83 262.37 135.34 262.395 135.656 261.956Z" fill="#0F2043"/>
<path d="M133.542 280.958L135.316 283.592C135.34 283.641 135.389 283.714 135.413 283.763L144.792 304.643C145.035 305.18 145.545 305.326 145.886 304.936C147.028 303.667 148.121 302.277 149.166 300.765C150.065 299.472 150.867 298.081 151.644 296.667C151.911 296.154 151.839 295.374 151.45 295.008L137.163 281.202C137.114 281.153 137.09 281.104 137.041 281.055L135.267 278.494C134.951 278.055 134.465 278.055 134.174 278.518C134.004 278.787 133.809 279.055 133.615 279.299C133.251 279.714 133.226 280.494 133.542 280.958Z" fill="#0F2043"/>
<path d="M122.268 259.419L120.931 257.418C120.907 257.37 120.859 257.296 120.834 257.248L111.091 235.538C110.848 234.977 110.337 234.855 109.973 235.27C108.952 236.416 108.005 237.66 107.082 239.002C106.012 240.563 105.04 242.222 104.166 243.954C103.898 244.466 103.996 245.222 104.36 245.563L119.085 259.785C119.133 259.833 119.158 259.882 119.206 259.931L120.591 261.931C120.907 262.395 121.417 262.37 121.709 261.858C121.879 261.565 122.049 261.297 122.243 261.029C122.559 260.59 122.559 259.882 122.268 259.419Z" fill="#0F2043"/>
<path d="M126.01 283.007L122.025 311.473C121.928 312.107 122.219 312.693 122.657 312.815C124.455 313.303 126.277 313.547 128.124 313.547C129.97 313.547 131.817 313.303 133.591 312.815C134.028 312.693 134.295 312.083 134.223 311.473L130.238 283.007C130.165 282.421 129.776 282.031 129.363 282.104C128.95 282.202 128.537 282.226 128.124 282.226C127.711 282.226 127.298 282.177 126.884 282.104C126.471 282.031 126.107 282.421 126.01 283.007Z" fill="#0F2043"/>
<path d="M137.065 272.981L156.455 278.836C156.893 278.958 157.281 278.543 157.379 277.933C157.719 275.299 157.889 272.615 157.889 269.883C157.889 267.151 157.719 264.468 157.379 261.834C157.306 261.2 156.893 260.785 156.455 260.931L137.065 266.785C136.677 266.907 136.385 267.469 136.458 268.054C136.506 268.639 136.555 269.249 136.555 269.859C136.555 270.469 136.531 271.079 136.458 271.664C136.385 272.298 136.652 272.859 137.065 272.981Z" fill="#0F2043"/>
<path d="M119.182 266.81L99.7921 260.955C99.3547 260.833 98.966 261.248 98.8688 261.858C98.5286 264.492 98.3585 267.176 98.3585 269.908C98.3585 272.64 98.5286 275.323 98.8688 277.957C98.9417 278.591 99.3547 279.006 99.7921 278.86L119.182 273.005C119.571 272.883 119.862 272.322 119.789 271.737C119.741 271.152 119.692 270.542 119.692 269.932C119.692 269.322 119.717 268.712 119.789 268.127C119.838 267.493 119.571 266.932 119.182 266.81Z" fill="#0F2043"/>
<path d="M128.124 277.714C131.076 277.714 133.469 274.208 133.469 269.883C133.469 265.559 131.076 262.053 128.124 262.053C125.171 262.053 122.778 265.559 122.778 269.883C122.778 274.208 125.171 277.714 128.124 277.714Z" fill="#0F2043"/>
<path d="M421.766 296.13C421.766 296.13 419.652 333.354 407.989 334.403C396.326 335.451 379.39 335.476 379.39 335.476C379.39 335.476 360.316 337.598 352.905 317.401C341.509 286.348 421.766 296.13 421.766 296.13Z" fill="#0F2043"/>
<path d="M256.174 318.254C256.174 318.254 259.552 347.721 272.017 353.185C284.482 358.649 318.256 356.307 318.256 356.307C318.256 356.307 330.988 357.356 334.876 320.572L453.329 319.011C453.329 319.011 460.351 319.011 461.906 315.108L509.433 316.669C509.433 316.669 517.233 315.108 518.788 312.766C520.343 310.424 546.05 311.205 546.05 311.205C546.05 311.205 554.627 346.404 574.114 347.184C593.602 347.965 611.509 345.623 611.509 345.623C611.509 345.623 646.523 326.231 634.106 261.907C621.884 198.632 255.397 205.584 255.397 205.584L245.265 266.615L256.174 318.254Z" fill="#0F2043"/>
<path d="M621.326 304.277L627.206 295.545C627.303 295.398 627.376 295.252 627.449 295.081C628.08 293.276 632.017 281.787 635.151 268.737C638.796 253.613 636.123 244.637 635.661 236.392C634.714 219.366 625.675 207.486 623.974 205.413C623.804 205.193 623.658 204.925 623.585 204.657C617.9 184.679 611.752 180.044 611.752 180.044C593.237 160.969 576.18 159.774 574.941 159.701C574.892 159.701 574.819 159.701 574.77 159.676L557.446 157.188C556.96 157.115 556.498 156.871 556.182 156.505C552.343 152.017 527.146 122.818 515.629 112.232C503.164 100.767 490.699 99.7184 490.699 99.7184C386.922 85.8632 314.344 94.23 312.036 94.4983C311.987 94.4983 311.963 94.4983 311.914 94.4983C310.31 94.5959 273.645 96.8888 255.348 110.134C238.097 122.721 205.246 165.604 200.41 171.97C200.022 172.482 199.438 172.775 198.807 172.775C193.461 172.873 168.215 173.287 160.319 173.287C151.936 173.287 144.015 178.459 143.237 178.971C143.188 178.995 143.164 179.02 143.116 179.044L113.035 202.461C102.003 216.341 109.341 211.584 109.39 211.584C109.414 211.584 109.098 214.048 109.851 213.121C111.552 210.999 114.42 210.291 116.874 210.779C130.772 213.56 143.31 281.69 143.917 285.251C143.942 285.348 143.966 285.446 143.99 285.544L147.586 299.935C147.684 300.228 147.854 300.521 148.072 300.74L151.134 306.204C151.474 306.546 154.317 306.546 154.779 306.595L253.453 317.937C254.789 318.084 255.931 316.937 255.737 315.596C253.526 300.692 243.904 227.61 266.282 214.999C284.36 204.779 293.545 234.562 306.811 268.2C317.721 295.886 324.962 309.327 327.149 313.156C327.562 313.888 328.388 314.278 329.214 314.157L407.867 303.424C408.037 303.399 408.183 303.35 408.329 303.302C410.637 302.375 430.756 294.569 453.304 291.666C477.457 288.544 523.429 288.544 523.429 288.544C523.429 288.544 573.313 287.763 588.888 290.105C600.065 291.788 607.621 297.496 611.023 300.594C612.068 301.545 611.849 303.229 610.61 303.911C608.083 305.302 604.779 307.327 606.82 307.327C609.419 307.327 617.438 305.692 620.038 305.156C620.572 305.034 621.034 304.716 621.326 304.277Z" fill="#2856A6"/>
<path d="M170.451 165.726C169.649 170.19 170.913 174.166 175.116 177.459L199.803 172.775L204.735 166.506V157.896C204.735 157.896 204.735 152.432 198.491 152.432C192.246 152.432 187.387 150.626 176.671 158.7C173.561 161.018 170.451 165.726 170.451 165.726Z" fill="#2856A6"/>
<path d="M207.724 170.092L253.769 117.281C253.818 117.233 253.842 117.184 253.89 117.159C254.498 116.598 259.042 112.427 266.282 110.964C274.082 109.402 291.99 104.695 285.769 126.599C279.987 146.894 270.875 165.165 269.563 167.75C269.441 167.994 269.295 168.165 269.101 168.336C267.813 169.482 262.468 173.702 253.04 173.531C248.083 173.434 220.335 173.507 209.279 173.531C207.505 173.531 206.558 171.434 207.724 170.092Z" fill="#0F2043"/>
<path d="M200.07 162.579C200.07 162.579 202.403 157.115 196.183 156.31C189.938 155.529 179.83 159.432 179.83 164.92C179.83 170.409 183.718 175.092 183.718 175.092L194.627 177.434C194.627 177.434 196.96 173.531 198.515 169.604C200.07 165.725 200.07 162.579 200.07 162.579Z" fill="white"/>
<path d="M347.858 185.849C356.637 181.366 361.815 173.906 359.424 169.187C357.033 164.468 347.978 164.277 339.198 168.76C330.419 173.244 325.241 180.704 327.632 185.423C330.023 190.141 339.078 190.332 347.858 185.849Z" fill="#1D3D7E"/>
<path d="M391.369 265.468C391.369 265.468 398.78 268.981 395.645 272.127C392.511 275.274 368.772 299.106 368.772 299.106C368.772 299.106 359.83 296.252 357.084 294.423C354.752 292.861 352.03 290.91 355.529 287.373C360.972 281.885 375.794 265.078 391.369 265.468Z" fill="#1D3D7E"/>
<path d="M634.106 236.05C634.106 236.05 610.586 224.878 512.276 225.122C411.245 225.391 364.738 248.588 364.738 248.588C364.738 248.588 341.533 266.029 340.586 269.664L371.712 252.491C371.712 252.491 427.962 228.83 512.64 232.465C512.64 232.465 590.564 233.513 634.131 240.295V236.05H634.106Z" fill="#1D3D7E"/>
<path d="M174.873 174.58L183.693 182.923L191.493 183.703L200.848 189.167C200.848 189.167 204.735 187.606 205.513 183.703C206.29 179.8 200.07 179.02 200.07 179.02L204.735 168.579" fill="#1D3D7E"/>
<path d="M174.873 174.58C176.404 175.898 177.935 177.239 179.441 178.581L181.701 180.605L183.961 182.654L183.742 182.557L187.654 182.874L191.566 183.215H191.663L191.76 183.264C193.34 184.167 194.895 185.069 196.45 185.972C198.005 186.874 199.584 187.777 201.139 188.704L200.702 188.679C200.945 188.582 201.236 188.435 201.504 188.265C201.625 188.192 201.771 188.094 201.893 188.021L202.281 187.752C202.767 187.387 203.229 186.972 203.618 186.508C204.006 186.045 204.371 185.557 204.614 184.996C204.638 184.923 204.687 184.874 204.711 184.801L204.784 184.581C204.833 184.435 204.906 184.313 204.93 184.167C205.003 183.874 205.1 183.581 205.124 183.313C205.148 183.045 205.148 182.752 205.1 182.484C205.051 182.215 204.93 181.971 204.808 181.727C204.517 181.264 204.055 180.849 203.545 180.532C202.524 179.898 201.261 179.508 200.046 179.313L199.56 179.239L199.754 178.825C200.58 177.117 201.382 175.385 202.233 173.678C203.059 171.97 203.909 170.263 204.76 168.555C204.055 170.336 203.35 172.092 202.621 173.849C201.893 175.605 201.139 177.361 200.41 179.117L200.143 178.63C200.823 178.727 201.455 178.849 202.111 179.044C202.743 179.239 203.375 179.483 203.982 179.825C204.59 180.166 205.148 180.63 205.562 181.24C205.756 181.557 205.926 181.898 205.999 182.264C206.096 182.63 206.096 183.02 206.072 183.386C206.047 183.752 205.926 184.094 205.853 184.435C205.805 184.606 205.732 184.752 205.683 184.923L205.586 185.167C205.562 185.24 205.513 185.313 205.464 185.411C205.197 186.045 204.784 186.63 204.347 187.143C203.909 187.679 203.399 188.143 202.84 188.533L202.427 188.826C202.281 188.923 202.136 189.021 201.99 189.094C201.698 189.265 201.407 189.436 201.066 189.582L200.848 189.679L200.629 189.558C199.074 188.655 197.519 187.728 195.964 186.826C194.409 185.899 192.854 184.996 191.299 184.069L191.493 184.142L187.605 183.703L183.718 183.24L183.596 183.215L183.45 183.191L181.288 181.044L179.125 178.898C177.692 177.483 176.282 176.044 174.873 174.58Z" fill="#1D3D7E"/>
<path d="M172.322 193.509C169.916 198.363 98.6744 186.313 138.159 219.829C163.842 241.636 144.768 289.739 176.258 290.349L242.762 293.447C244.074 293.52 245.143 292.422 245.046 291.105C244.171 278.884 242.567 223.317 264.679 208.413C265.189 208.072 264.582 209.023 264.679 208.413L268.08 186.386C268.421 184.215 275.2 182.362 264.873 183.752L190.327 188.24C190.205 188.387 172.419 193.338 172.322 193.509Z" fill="#1D3D7E"/>
<path d="M165.761 178.995C165.47 178.995 165.251 178.776 165.227 178.483C165.324 178.483 165.421 178.483 165.518 178.483C165.591 178.483 165.664 178.483 165.761 178.483C165.931 178.483 166.102 178.532 166.296 178.581C166.223 178.8 166.004 178.971 165.761 178.995Z" fill="#003B56"/>
<path d="M160.124 41.9314L152.47 42.9315C152.47 42.9315 155.337 40.5166 160.124 41.9314Z" fill="white"/>
<path d="M249.541 192.46H234.573C233.747 192.46 232.994 192.924 232.63 193.68L232.071 194.802C231.366 196.217 232.338 197.9 233.917 197.973L248.326 198.778C249.152 198.827 249.93 198.412 250.343 197.68L251.461 195.753C252.287 194.29 251.242 192.46 249.541 192.46Z" fill="#1D3D7E"/>
<path d="M264.679 208.413C264.679 208.413 278.237 194.046 303.653 225.415C323.456 249.857 331.353 265.883 333.904 271.786C334.463 273.079 336.042 273.518 337.184 272.713L374.627 246.149L403.226 236.587C403.226 236.587 364.568 244.564 341.266 228.611C323.407 216.39 320.078 185.557 286.182 183.41C252.287 181.264 265.529 187.655 265.529 187.655L264.679 208.413Z" fill="#1D3D7E"/>
<path d="M293.593 96.7424C293.593 96.7424 307.37 96.7424 318.475 113.232C329.603 129.722 332.252 156.286 361.895 156.286C391.539 156.286 572.657 159.481 572.657 159.481C572.657 159.481 558.88 160.554 549.355 149.382C539.83 138.21 539.83 138.21 539.83 138.21C539.83 138.21 514.22 112.573 507.003 105.792C498.523 97.8157 461.42 94.791 404.271 91.9614C339.663 88.7903 293.593 96.7424 293.593 96.7424Z" fill="#1D3D7E"/>
<path d="M354.825 197.778C354.825 197.778 362.454 179.166 389.449 176.507C416.469 173.848 583.591 175.385 583.591 175.385C583.591 175.385 606.261 177.093 611.874 189.801C615.591 198.241 618.726 205.779 620.402 209.877C621.01 211.389 619.843 212.999 618.24 212.901C605.216 212.023 558.345 209.121 521.339 210.023C477.919 211.096 412.241 218.536 408.013 218.536C386.242 218.536 360.34 205.779 360.34 205.779L354.825 197.778Z" fill="#1D3D7E"/>
<path d="M443.974 114.866L367.605 115.647C367.605 115.647 353.585 115.647 355.14 125.819C356.695 135.99 359.028 138.332 359.028 138.332C359.028 138.332 362.916 146.162 373.826 146.162C384.735 146.162 514.098 146.162 514.098 146.162C514.098 146.162 525.786 147.723 520.343 139.893C514.9 132.063 502.411 123.477 502.411 123.477C502.411 123.477 494.611 118.013 486.058 117.208C477.481 116.427 443.974 114.866 443.974 114.866Z" fill="#0F2043"/>
<path d="M348.823 201.534C347.948 200.486 348.288 198.876 349.528 198.315C355.432 195.583 372.125 188.411 384.76 188.411C396.301 188.411 401.015 187.972 402.667 187.752C403.153 187.679 403.591 187.46 403.907 187.118C405.51 185.386 411.269 179.922 419.822 180.581C429.954 181.361 436.174 187.63 435.397 198.583C434.619 209.535 426.82 214.219 419.044 214.219C412.921 214.219 409.179 211.316 407.891 210.072C407.527 209.73 407.041 209.511 406.531 209.486L360 207.95C359.878 207.95 359.757 207.925 359.611 207.901C358.445 207.657 352.638 206.193 348.823 201.534Z" fill="#F58C7E"/>
<path d="M424.487 153.188C424.487 153.188 430.732 149.285 440.84 148.504C450.972 147.724 493.834 148.504 493.834 148.504C493.834 148.504 503.966 149.285 504.744 152.407L424.487 153.188Z" fill="#F58C7E"/>
<path d="M595.91 182.532C595.91 182.532 585.826 182.142 585.778 196.875C585.778 196.949 585.778 197.046 585.778 197.119C585.899 198.315 587.187 207.974 596.687 208.34C602.325 208.56 604.9 206.218 605.896 204.901C606.309 204.364 606.917 204.047 607.573 204.047H618.847C620.135 204.047 621.131 202.876 620.864 201.583C620.281 198.681 618.92 193.778 615.786 190.387C615.543 190.119 615.202 189.923 614.838 189.801L606.771 187.435C606.334 187.313 605.945 187.021 605.653 186.63C604.754 185.386 602.009 182.532 595.91 182.532Z" fill="#F58C7E"/>
<path d="M276.803 340.135C286.023 340.135 293.496 318.042 293.496 290.788C293.496 263.535 286.023 241.441 276.803 241.441C267.584 241.441 260.111 263.535 260.111 290.788C260.111 318.042 267.584 340.135 276.803 340.135Z" fill="#EBE3D5"/>
<path d="M277.63 286.495L276.974 288.446L277.605 288.373L277.63 286.495Z" fill="#0F2043"/>
<path d="M275.953 286.495L275.977 288.373L276.609 288.446L275.953 286.495Z" fill="#0F2043"/>
<path d="M275.977 293.203L275.953 296.398L276.803 293.837L276.56 293.13L275.977 293.203Z" fill="#0F2043"/>
<path d="M276.803 293.837L277.654 296.398L277.605 293.203L277.022 293.13L276.803 293.837Z" fill="#0F2043"/>
<path d="M276.803 293.105L276.56 293.13L276.803 293.837L277.022 293.13L276.803 293.105Z" fill="#0F2043"/>
<path d="M276.925 288.593L276.974 288.446L276.803 288.471H276.949L276.925 288.593Z" fill="#0F2043"/>
<path d="M277.581 290.788V291.349L277.605 291.422L278.699 288.251L277.605 288.373L277.581 290.788Z" fill="#0F2043"/>
<path d="M276.925 289.349L277.192 290.227L277.289 290.447L277.581 290.373V290.788L277.605 288.373L276.974 288.446L276.925 288.593V289.349Z" fill="#0F2043"/>
<path d="M277.605 293.203L278.237 293.276L277.605 291.422L277.581 291.495L277.605 293.203Z" fill="#0F2043"/>
<path d="M277.581 291.495L277.605 291.422L277.581 291.349V291.495Z" fill="#0F2043"/>
<path d="M277.289 290.447L277.192 290.227L276.925 289.349L276.876 290.569L277.289 290.447Z" fill="#0F2043"/>
<path d="M277.581 291.202H277.532L277.581 291.349V290.788V291.202Z" fill="#0F2043"/>
<path d="M277.581 290.373L277.289 290.447L277.532 291.203H277.581V290.788V290.373Z" fill="#0F2043"/>
<path d="M277.192 292.618L277.022 293.13L277.605 293.203L277.581 291.496L277.192 292.618Z" fill="#0F2043"/>
<path d="M276.876 291.032L276.949 293.105H276.803L277.022 293.13L277.192 292.617L277.581 291.495V291.349L277.532 291.203L276.876 291.032Z" fill="#0F2043"/>
<path d="M276.876 290.788V291.032L277.532 291.203L277.289 290.446L276.876 290.568V290.788Z" fill="#0F2043"/>
<path d="M276.658 288.471H276.803L276.609 288.446L276.658 288.593V288.471Z" fill="#0F2043"/>
<path d="M275.977 291.422L275.346 293.276L275.977 293.203L276.002 291.495L275.977 291.422Z" fill="#0F2043"/>
<path d="M276.002 290.788L275.977 288.373L274.884 288.251L275.977 291.422L276.002 291.349V290.788Z" fill="#0F2043"/>
<path d="M276.002 290.788V290.373L276.317 290.447L276.39 290.227L276.682 289.349L276.658 288.593L276.609 288.446L275.977 288.373L276.002 290.788Z" fill="#0F2043"/>
<path d="M276.002 291.349L275.977 291.422L276.002 291.495V291.349Z" fill="#0F2043"/>
<path d="M276.682 289.349L276.39 290.227L276.317 290.447L276.731 290.569L276.682 289.349Z" fill="#0F2043"/>
<path d="M276.39 292.618L276.002 291.496L275.977 293.203L276.56 293.13L276.39 292.618Z" fill="#0F2043"/>
<path d="M276.002 291.202V290.788V291.349L276.05 291.202H276.002Z" fill="#0F2043"/>
<path d="M276.002 291.203H276.05L276.317 290.447L276.002 290.373V290.788V291.203Z" fill="#0F2043"/>
<path d="M276.731 291.032L276.05 291.203L276.002 291.349V291.495L276.39 292.617L276.56 293.13L276.803 293.105H276.658L276.731 291.032Z" fill="#0F2043"/>
<path d="M276.731 291.032V290.788V290.568L276.317 290.446L276.05 291.203L276.731 291.032Z" fill="#0F2043"/>
<path d="M276.658 288.592L276.803 289.007L276.925 288.592L276.949 288.47H276.803H276.658V288.592Z" fill="#0F2043"/>
<path d="M276.925 288.593L276.803 289.007L276.925 289.349V288.593Z" fill="#0F2043"/>
<path d="M276.658 288.593L276.682 289.349L276.803 289.007L276.658 288.593Z" fill="#0F2043"/>
<path d="M276.803 290.569H276.876L276.925 289.349L276.803 289.008L276.682 289.349L276.731 290.569H276.803Z" fill="#0F2043"/>
<path d="M276.876 291.032L276.803 291.008L276.731 291.032L276.658 293.105H276.803H276.949L276.876 291.032Z" fill="#0F2043"/>
<path d="M276.876 290.569H276.803H276.731V290.788V291.032L276.803 291.008L276.876 291.032V290.788V290.569Z" fill="#0F2043"/>
<path d="M277.873 277.347L279.914 248.222C279.962 247.588 279.816 246.954 279.598 246.856C278.699 246.368 277.751 246.1 276.803 246.1C275.856 246.1 274.932 246.368 274.009 246.856C273.79 246.978 273.645 247.588 273.693 248.222L275.734 277.347C275.783 277.957 275.977 278.347 276.172 278.25C276.366 278.152 276.585 278.104 276.803 278.104C277.022 278.104 277.216 278.152 277.435 278.25C277.63 278.372 277.824 277.957 277.873 277.347Z" fill="#0F2043"/>
<path d="M273.183 299.594L272.284 302.228C272.26 302.277 272.235 302.326 272.235 302.375L264.97 316.522C264.776 316.888 264.727 317.669 264.873 318.206C265.262 319.669 265.675 321.059 266.137 322.401C266.671 323.962 267.23 325.377 267.813 326.67C267.983 327.06 268.251 326.938 268.372 326.377L273.134 305.009C273.159 304.936 273.159 304.887 273.183 304.838L274.082 302.131C274.252 301.643 274.228 300.887 274.058 300.448C273.961 300.204 273.863 299.935 273.766 299.643C273.572 299.155 273.329 299.13 273.183 299.594Z" fill="#0F2043"/>
<path d="M280.618 282.641L281.323 280.616C281.347 280.567 281.372 280.519 281.372 280.47L288.855 265.907C289.05 265.541 289.098 264.785 288.952 264.248C288.515 262.468 288.005 260.785 287.47 259.175C287.009 257.809 286.523 256.516 286.012 255.345C285.842 254.93 285.575 255.052 285.454 255.613L280.497 277.835C280.472 277.908 280.472 277.957 280.448 278.006L279.768 280.055C279.622 280.518 279.622 281.25 279.768 281.714C279.865 281.982 279.962 282.275 280.035 282.567C280.205 283.104 280.472 283.129 280.618 282.641Z" fill="#0F2043"/>
<path d="M279.549 302.106L280.448 304.814C280.472 304.863 280.472 304.936 280.497 304.985L285.259 326.353C285.381 326.914 285.648 327.036 285.818 326.645C286.401 325.353 286.96 323.938 287.495 322.377C287.956 321.035 288.369 319.645 288.758 318.181C288.904 317.645 288.855 316.864 288.661 316.498L281.396 302.35C281.371 302.301 281.347 302.253 281.347 302.204L280.448 299.569C280.302 299.106 280.035 299.13 279.889 299.594C279.792 299.862 279.695 300.13 279.598 300.399C279.403 300.838 279.403 301.618 279.549 302.106Z" fill="#0F2043"/>
<path d="M273.815 280.08L273.134 278.031C273.11 277.982 273.11 277.909 273.086 277.86L268.129 255.638C268.008 255.077 267.74 254.955 267.57 255.37C267.06 256.541 266.574 257.809 266.112 259.199C265.578 260.785 265.067 262.492 264.63 264.273C264.484 264.81 264.533 265.566 264.727 265.932L272.211 280.494C272.235 280.543 272.26 280.592 272.26 280.641L272.964 282.665C273.134 283.129 273.377 283.104 273.548 282.592C273.645 282.299 273.718 282.007 273.815 281.738C273.961 281.275 273.985 280.543 273.815 280.08Z" fill="#0F2043"/>
<path d="M275.734 304.229L273.693 333.354C273.645 333.988 273.79 334.622 274.009 334.72C274.908 335.208 275.856 335.476 276.803 335.476C277.751 335.476 278.674 335.208 279.598 334.72C279.816 334.598 279.962 333.988 279.914 333.354L277.873 304.229C277.824 303.619 277.63 303.228 277.435 303.326C277.241 303.424 277.022 303.472 276.803 303.472C276.585 303.472 276.39 303.424 276.172 303.326C275.953 303.228 275.759 303.619 275.734 304.229Z" fill="#0F2043"/>
<path d="M281.347 293.959L291.212 299.96C291.431 300.082 291.65 299.667 291.674 299.033C291.844 296.35 291.941 293.593 291.941 290.812C291.941 288.032 291.844 285.275 291.674 282.592C291.625 281.958 291.431 281.519 291.212 281.665L281.347 287.666C281.153 287.788 281.007 288.373 281.031 288.959C281.056 289.568 281.08 290.178 281.08 290.812C281.08 291.447 281.056 292.056 281.031 292.666C281.007 293.252 281.129 293.837 281.347 293.959Z" fill="#0F2043"/>
<path d="M272.26 287.617L262.395 281.616C262.176 281.494 261.957 281.909 261.933 282.543C261.763 285.226 261.666 287.983 261.666 290.764C261.666 293.544 261.763 296.301 261.933 298.984C261.982 299.618 262.176 300.057 262.395 299.911L272.26 293.91C272.454 293.788 272.6 293.203 272.576 292.617C272.551 292.008 272.527 291.398 272.527 290.764C272.527 290.129 272.551 289.52 272.576 288.91C272.6 288.324 272.454 287.739 272.26 287.617Z" fill="#0F2043"/>
<path d="M276.803 298.789C278.306 298.789 279.525 295.207 279.525 290.788C279.525 286.369 278.306 282.787 276.803 282.787C275.3 282.787 274.082 286.369 274.082 290.788C274.082 295.207 275.3 298.789 276.803 298.789Z" fill="#0F2043"/>
<path d="M443.464 244.563C443.464 244.563 412.751 251.467 381.236 266.102C326.736 291.398 369.33 299.594 369.33 299.594C369.33 299.594 381.65 302.375 414.209 293.618C446.768 284.861 477.894 282.324 477.894 282.324L441.884 283.275C437.025 283.446 433.647 278.421 435.664 273.981L443.415 256.833C444.29 254.882 446.064 253.491 448.178 253.077C457.994 251.198 472.087 248.296 520.805 246.71L564.152 248.174C571.709 248.174 574.042 251.223 575.281 252.955L586.992 269.566C590.151 274.054 586.774 280.201 581.331 279.933C572.9 279.543 562.111 279.226 554.02 279.665C554.02 279.665 604.268 285.934 619.114 293.496C620.402 294.154 621.933 294.105 623.197 293.422C627.23 291.276 633.815 285.007 623.926 268.883C610.294 246.686 573.215 241.905 573.215 241.905C537.157 236.441 495.364 236.05 443.464 244.563Z" fill="#1D3D7E"/>
<path d="M544.276 278.055H489.071C487.856 278.055 486.885 277.079 486.885 275.86V253.125C486.885 251.906 487.856 250.93 489.071 250.93H544.276C545.491 250.93 546.463 251.906 546.463 253.125V275.86C546.463 277.055 545.491 278.055 544.276 278.055Z" fill="#F2ECE5"/>
<path d="M496.069 269.249C496.069 269.176 496.021 269.103 495.948 269.005C495.875 268.907 495.778 268.883 495.729 268.883H492.133V267.224L496.045 257.077C496.069 257.028 496.094 256.979 496.118 256.979H497.6L497.624 257.004L497.649 257.028L497.673 257.052V266.907C497.673 266.98 497.697 267.054 497.746 267.102C497.794 267.151 497.867 267.175 497.94 267.2C498.013 267.224 498.086 267.224 498.159 267.249C498.232 267.249 498.28 267.273 498.329 267.273L498.378 267.322V268.785L498.329 268.834C498.28 268.834 498.232 268.834 498.159 268.859C498.086 268.859 498.013 268.883 497.94 268.907C497.867 268.932 497.794 268.956 497.746 269.005C497.697 269.054 497.673 269.103 497.673 269.2V271.591L497.624 271.639H496.094V269.249H496.069ZM494.004 266.956C494.004 267.029 494.028 267.102 494.101 267.176C494.15 267.249 494.223 267.273 494.296 267.273H495.705C495.778 267.273 495.851 267.224 495.923 267.151C495.996 267.078 496.045 267.005 496.045 266.932V263.395C496.045 263.297 495.996 263.224 495.923 263.175C495.851 263.102 495.778 263.077 495.68 263.077C495.51 263.077 495.389 263.175 495.34 263.346L494.028 266.81C494.028 266.858 494.004 266.883 494.004 266.907C494.004 266.907 494.004 266.932 494.004 266.956Z" fill="#2856A6"/>
<path d="M502.727 257.15C503.14 257.15 503.529 257.224 503.917 257.37C504.282 257.516 504.622 257.736 504.914 258.004C505.205 258.272 505.424 258.59 505.594 258.955C505.764 259.321 505.861 259.712 505.861 260.126V268.835C505.861 269.005 505.837 269.176 505.788 269.371C505.74 269.566 505.691 269.737 505.643 269.908C505.4 270.493 505.011 270.957 504.476 271.298C503.942 271.64 503.359 271.786 502.751 271.786C501.949 271.786 501.293 271.567 500.783 271.128C500.273 270.688 499.933 270.079 499.714 269.347C499.714 269.347 499.714 269.322 499.69 269.274C499.69 269.249 499.665 269.2 499.665 269.2C499.665 269.176 499.641 269.152 499.641 269.103C499.641 269.054 499.641 269.005 499.617 268.957C499.617 268.908 499.592 268.859 499.592 268.786V260.151C499.592 259.712 499.69 259.273 499.908 258.882C500.127 258.492 500.394 258.15 500.71 257.858C500.977 257.614 501.293 257.419 501.633 257.297C501.998 257.224 502.362 257.15 502.727 257.15ZM502.727 258.76C502.557 258.76 502.362 258.785 502.192 258.858C502.022 258.931 501.852 259.029 501.706 259.151C501.561 259.273 501.439 259.419 501.366 259.565C501.293 259.712 501.245 259.907 501.245 260.077V268.835C501.245 269.03 501.293 269.2 501.366 269.347C501.439 269.493 501.561 269.64 501.706 269.762C501.852 269.883 502.022 269.981 502.192 270.054C502.362 270.127 502.532 270.152 502.727 270.152C502.921 270.152 503.116 270.103 503.286 270.03C503.456 269.957 503.626 269.859 503.772 269.713C503.917 269.591 504.039 269.42 504.112 269.249C504.209 269.079 504.233 268.883 504.233 268.664V260.126C504.233 259.76 504.136 259.468 503.917 259.273C503.699 259.053 503.456 258.882 503.164 258.736L503.14 258.711C503.067 258.711 502.994 258.687 502.945 258.687C502.873 258.76 502.8 258.76 502.727 258.76Z" fill="#2856A6"/>
<path d="M510.77 269.249C510.77 269.176 510.721 269.103 510.648 269.005C510.575 268.907 510.478 268.883 510.429 268.883H506.833V267.224L510.745 257.077C510.77 257.028 510.794 256.979 510.818 256.979H512.3L512.325 257.004L512.349 257.028L512.373 257.052V266.907C512.373 266.98 512.397 267.054 512.446 267.102C512.495 267.151 512.568 267.175 512.64 267.2C512.713 267.224 512.786 267.224 512.859 267.249C512.932 267.249 512.981 267.273 513.029 267.273L513.078 267.322V268.785L513.029 268.834C512.981 268.834 512.932 268.834 512.859 268.859C512.786 268.859 512.713 268.883 512.64 268.907C512.568 268.932 512.495 268.956 512.446 269.005C512.397 269.054 512.373 269.103 512.373 269.2V271.591L512.325 271.639H510.794V269.249H510.77ZM508.704 266.956C508.704 267.029 508.728 267.102 508.801 267.176C508.85 267.249 508.923 267.273 508.996 267.273H510.405C510.478 267.273 510.551 267.224 510.624 267.151C510.697 267.078 510.745 267.005 510.745 266.932V263.395C510.745 263.297 510.697 263.224 510.624 263.175C510.551 263.102 510.478 263.077 510.381 263.077C510.211 263.077 510.089 263.175 510.041 263.346L508.728 266.81C508.728 266.858 508.704 266.883 508.704 266.907C508.728 266.907 508.704 266.932 508.704 266.956Z" fill="#2856A6"/>
<path d="M521.655 257.077L521.704 257.028H523.186L523.259 257.077V269.81C523.259 269.859 523.307 269.932 523.38 270.005C523.453 270.078 523.526 270.103 523.575 270.103H527.827L527.875 270.176V271.639L527.827 271.688H521.704L521.655 271.639V257.077Z" fill="#2856A6"/>
<path d="M528.75 269.225C528.75 269.176 528.75 269.176 528.774 269.176H530.257C530.305 269.176 530.329 269.225 530.354 269.322C530.378 269.42 530.378 269.493 530.402 269.517C530.475 269.664 530.597 269.786 530.742 269.908C530.888 270.03 531.058 270.103 531.228 270.103H532.492C532.735 270.103 532.929 270.005 533.099 269.81C533.269 269.615 533.367 269.42 533.367 269.176V266.078C533.367 265.834 533.269 265.615 533.099 265.444C532.929 265.273 532.711 265.176 532.492 265.151C532.176 265.151 531.86 265.151 531.544 265.151C531.228 265.151 530.937 265.102 530.67 265.054C530.378 264.98 530.111 264.883 529.868 264.736C529.625 264.59 529.382 264.371 529.187 264.078C529.066 263.883 528.969 263.712 528.872 263.492C528.799 263.297 528.75 263.078 528.75 262.858V259.297C528.75 259.004 528.823 258.711 528.969 258.443C529.115 258.175 529.285 257.931 529.528 257.711C529.746 257.492 530.014 257.321 530.305 257.199C530.597 257.077 530.888 257.004 531.156 257.004H532.565C532.881 257.004 533.172 257.077 533.464 257.199C533.755 257.321 533.998 257.516 534.241 257.736C534.46 257.955 534.654 258.199 534.776 258.492C534.922 258.785 534.97 259.077 534.97 259.394C534.97 259.419 534.97 259.443 534.97 259.468C534.97 259.492 534.946 259.516 534.922 259.516H533.439L533.415 259.492C533.342 259.272 533.245 259.077 533.099 258.882C532.954 258.687 532.759 258.614 532.492 258.614H531.253C531.156 258.614 531.058 258.638 530.961 258.687C530.864 258.736 530.767 258.809 530.67 258.882C530.572 258.955 530.5 259.053 530.451 259.15C530.402 259.248 530.378 259.346 530.378 259.443V262.712C530.378 262.956 530.475 263.151 530.645 263.297C530.815 263.444 531.034 263.517 531.253 263.566C531.301 263.566 531.399 263.566 531.52 263.566C531.641 263.566 531.787 263.566 531.909 263.566C532.055 263.566 532.176 263.566 532.298 263.566C532.419 263.566 532.516 263.566 532.565 263.566C533.099 263.59 533.537 263.761 533.925 264.029C534.314 264.322 534.606 264.688 534.8 265.151C534.849 265.297 534.897 265.395 534.922 265.493C534.946 265.59 534.97 265.712 534.97 265.834V269.371C534.97 269.591 534.922 269.81 534.849 270.005C534.752 270.2 534.654 270.396 534.557 270.566C534.363 270.908 534.071 271.176 533.707 271.371C533.342 271.566 532.954 271.664 532.565 271.664H531.18C530.864 271.664 530.548 271.591 530.257 271.469C529.965 271.347 529.722 271.176 529.479 270.957C529.26 270.737 529.066 270.469 528.944 270.176C528.823 269.883 528.75 269.566 528.75 269.249V269.225Z" fill="#2856A6"/>
<path d="M538.323 258.931C538.323 258.882 538.275 258.809 538.178 258.736C538.08 258.662 538.008 258.614 537.959 258.614H536.015V257.028H542.163L542.211 257.077V258.54L542.163 258.614H540.267C540.194 258.614 540.122 258.662 540.049 258.736C539.976 258.833 539.927 258.906 539.927 258.955V271.639L539.854 271.688H538.323V258.931Z" fill="#2856A6"/>
<path d="M403.226 200.437H377.81C376.353 200.437 375.162 199.241 375.162 197.778C375.162 196.314 376.353 195.119 377.81 195.119H403.226C404.684 195.119 405.875 196.314 405.875 197.778C405.875 199.241 404.684 200.437 403.226 200.437Z" fill="#FAC3BB"/>
<path d="M616.004 199.363H611.582C610.124 199.363 608.934 198.168 608.934 196.704C608.934 195.241 610.124 194.046 611.582 194.046H616.004C617.462 194.046 618.653 195.241 618.653 196.704C618.653 198.168 617.462 199.363 616.004 199.363Z" fill="#FAC3BB"/>
<path d="M512.325 189.509C514.512 189.509 516.285 187.728 516.285 185.532C516.285 183.337 514.512 181.556 512.325 181.556C510.137 181.556 508.364 183.337 508.364 185.532C508.364 187.728 510.137 189.509 512.325 189.509Z" fill="#2856A6"/>
<path d="M253.72 184.679L236.639 186.899C235.594 187.045 234.792 187.923 234.744 188.972L234.695 189.874C234.646 191.216 235.788 192.314 237.125 192.143L253.04 190.387C253.574 190.338 254.085 190.07 254.449 189.655L255.64 188.289C256.952 186.777 255.713 184.435 253.72 184.679Z" fill="#0F2043"/>
<path d="M183.985 58.4697C199.876 60.0553 215.767 61.6652 231.512 62.3726C242.13 62.8604 243.466 68.9587 244.487 70.2759C246.091 75.8131 227.867 90.6928 225.292 93.0345L191.323 94.9615C191.323 94.9615 179.708 60.787 181.361 60.787" fill="#FAC3BB"/>
<path d="M166.758 333.866C170.451 333.793 195.04 332.573 195.867 333.11C198.467 308.839 207.262 187.923 207.262 187.923L200.119 143.26L138.961 144.845C138.961 144.845 99.2333 223 98.4557 248.515C97.7511 271.323 99.865 315.401 100.132 324.45L109.584 328.353C109.997 328.305 126.228 328.622 132.157 328.744C133.348 328.768 134.344 327.841 134.393 326.646L138.183 238.953L162.019 197.485L166.758 333.866Z" fill="#194F56"/>
<path d="M96.0745 337.062C107.786 336.257 121.685 335.818 133.421 334.769L133.275 327.426C133.251 326.353 132.449 325.426 131.38 325.304L100.497 321.206C99.7192 320.962 98.9417 321.572 98.966 322.377C98.966 322.377 92.7457 324.475 86.2095 327.304C56.8817 340.769 91.3364 337.501 96.0745 337.062Z" fill="#84A6A3"/>
<path d="M181.336 343.964C179.879 343.964 176.428 339.379 174.97 338.647C171.277 336.793 164.911 335.988 159.833 343.428C157.767 346.648 155.945 349.99 155.629 352.209C155.192 355.307 162.117 355.941 168.337 355.917C174.557 355.868 180.583 353.624 185.297 349.55C189.671 345.77 194.482 340.867 195.332 337.086C195.356 336.964 195.381 336.793 195.429 336.573C192.465 338.72 189.622 340.72 186.366 342.159C182.503 343.843 185.224 343.964 181.336 343.964Z" fill="#EBE3D5"/>
<path d="M177.4 328.475C177.303 328.524 172.54 328.28 168.896 331.354C167.948 332.159 166.733 332.598 166.758 333.842C166.758 333.842 162.991 338.501 159.833 343.404C163.817 342.282 167.851 341.964 171.544 343.818C173.002 344.55 175.772 345.282 178.275 347.794C179.077 348.599 183.086 346.892 186.803 343.209C189.355 340.696 192.489 338.671 195.429 336.525C195.551 335.817 195.672 334.647 195.842 333.085C195.162 332.671 180.316 327.012 177.4 328.475Z" fill="#84A6A3"/>
<path d="M98.1885 333.841C93.4746 334.28 89.7084 330.524 86.2095 327.28C81.9817 329.109 77.608 331.256 74.7165 333.329C72.554 334.866 73.4044 336.573 73.04 337.842C71.5578 343.062 126.204 335.744 133.421 334.768L133.348 331.353C121.612 332.402 109.9 333.036 98.1885 333.841Z" fill="#EBE3D5"/>
<path d="M137.187 102.011C137.527 110.549 136.847 121.208 126.787 124.404L101.736 112.5L127.735 73.9105C148.194 57.9087 158.205 68.3977 149.749 81.0088L134.295 109.207" fill="#FAC3BB"/>
<path d="M181.725 57.2991C181.385 57.2747 174.727 48.5176 174.436 48.3713L169.139 47.8346L156.431 51.0301C151.061 50.5666 138.815 77.3257 138.815 77.3257C138.815 77.3257 135 80.4479 131.817 107.378C131.914 107.402 127.249 157.359 129.436 158.408C149.02 167.97 155.921 156.822 155.921 156.822C155.921 156.822 168.628 167.994 207.287 165.872C208.429 165.799 207.19 148.773 205.853 135.478L203.059 63.2753L181.725 57.2991Z" fill="#FAC3BB"/>
<path d="M82.8807 84.6921L80.5724 77.4962L87.8618 64.7143L87.8132 76.0326L124.139 121.769C121.49 128.673 111.965 141.967 100.302 127.087L82.8807 84.6921Z" fill="#7B5E25"/>
<path d="M144.622 20.5876C145.91 24.8807 145.084 29.369 147.951 30.3691L148.558 17.6604L144.622 20.5876Z" fill="#0F2043"/>
<path d="M145.375 21.0267L171.52 17.9776L173.901 56.8843L164.376 69.6418C163.477 71.1541 161.29 71.0566 160.537 69.471L155.921 57.3965L154.438 47.7369L147.392 39.7361L145.375 21.0267Z" fill="#7B5E25"/>
<path d="M174.533 27.076C175.165 20.4899 174.363 16.27 174.363 16.27C174.363 16.27 171.787 8.513 161.193 8.75693C158.326 8.83011 145.181 10.2205 144.622 20.5875C144.622 20.5875 145.618 21.8315 156.164 20.0996C156.164 20.0996 158.982 20.3924 166.903 18.3677C166.903 18.3677 167.049 21.2949 168.191 23.9781C168.75 25.2953 169.552 26.5638 170.718 27.3687" fill="#0F2043"/>
<path d="M168.896 29.3202C168.896 29.3202 173.585 23.1 175.772 24.1001C177.935 25.1002 177.497 36.8576 173.051 35.4184C168.604 33.9793 168.896 29.3202 168.896 29.3202Z" fill="#7B5E25"/>
<path d="M168.628 25.2466L169.941 26.8322L171.301 40.9069C171.301 40.9069 169.916 49.6152 157.986 51.2007C146.056 52.7863 146.517 31.6864 146.517 31.6864L147.343 34.8575C147.708 35.7844 148.194 36.6869 148.753 37.4919C149.287 38.3213 149.798 39.175 150.235 40.0775C150.235 40.0775 152.057 38.1993 155.702 37.687C159.687 37.1504 163.283 39.1262 163.283 39.1262C163.283 39.1262 166.393 37.004 167.365 35.6624C169.503 32.7841 168.628 25.2466 168.628 25.2466Z" fill="#7B5E25"/>
<path d="M160.124 41.9315L160.051 41.3948L152.397 42.3949L152.47 42.9316L152.81 43.3462L152.762 43.2975L152.81 43.3462L152.762 43.2975L152.81 43.3462C152.859 43.2975 154.438 42.029 157.16 42.029C157.986 42.029 158.934 42.151 159.954 42.4437L160.124 41.9315L160.051 41.3948L160.124 41.9315L160.27 41.4192C159.128 41.0777 158.107 40.9557 157.16 40.9557C154.001 40.9557 152.179 42.4681 152.13 42.5169C151.96 42.6632 151.887 42.9316 151.984 43.1511C152.082 43.3706 152.3 43.4926 152.543 43.4682L160.197 42.4681C160.44 42.4437 160.634 42.2242 160.659 41.9802C160.683 41.7363 160.513 41.4924 160.27 41.4192L160.124 41.9315Z" fill="white"/>
<path d="M161.218 27.9298C161.169 28.7591 160.829 28.3688 160.391 28.3444C159.954 28.32 159.59 28.6859 159.614 27.8566C159.638 27.0272 160.027 26.393 160.489 26.393C160.926 26.4174 161.242 27.1004 161.218 27.9298Z" fill="#0F2043"/>
<path d="M150.478 28.6618C150.429 29.4912 150.089 29.1009 149.652 29.0765C149.214 29.0521 148.85 29.418 148.874 28.5887C148.923 27.7593 149.287 27.1251 149.725 27.1495C150.186 27.1739 150.502 27.8325 150.478 28.6618Z" fill="#0F2043"/>
<path d="M207.141 18.9047L224.538 36.3944L250.756 64.3243L235.886 71.2275C234.087 71.8861 233.14 72.5203 232.289 71.2275C221.623 54.1768 210.713 38.3946 199.074 26.4909C194.263 20.1243 201.868 14.6115 207.141 18.9047Z" fill="#7B5E25"/>
<path d="M189.403 22.4171L181.506 17.9044C181.992 13.2454 182.794 8.65949 183.936 4.1224L185.491 3.24426C186.269 2.80518 187.217 2.90276 187.921 3.4394L207.141 18.8801C206.29 22.5391 203.01 25.1979 199.05 26.4907L198.564 25.9541L189.403 22.4171Z" fill="#7B5E25"/>
<path d="M178.275 11.8793L172.395 14.0015C171.836 14.1966 171.228 13.9283 171.034 13.3672C170.913 13.0501 170.961 12.6842 171.155 12.4159C171.933 11.1475 173.026 10.123 174.339 9.43998L179.32 6.73237L186.269 2.90268C191.42 2.70753 191.347 16.148 181.434 17.9531L181.288 17.8799C179.198 16.4408 177.91 14.6113 178.275 11.8793Z" fill="#7B5E25"/>
<path d="M230.054 64.8607L222.643 65.3974V85.7411C222.643 88.4731 225.097 90.5465 227.77 90.0586C234.962 88.7902 247.427 86.3997 249.663 84.5458C250.926 83.4725 252.7 82.0821 254.376 80.7893C257.122 78.6671 257.535 74.8862 255.786 71.8615C249.517 61.0066 231.512 38.0773 207.821 20.7339L206.242 27.6371L230.054 64.8607Z" fill="#7B5E25"/>
<path fill-rule="evenodd" clip-rule="evenodd" d="M192.612 166.056C192.807 166.003 193.007 166.118 193.06 166.313C195.004 173.494 199.128 179.248 205.708 183.418C205.823 183.491 205.888 183.623 205.876 183.759L193.873 323.287C193.856 323.488 193.679 323.637 193.478 323.62C193.278 323.602 193.129 323.425 193.147 323.224L205.131 183.917C198.504 179.658 194.329 173.793 192.356 166.505C192.303 166.31 192.418 166.109 192.612 166.056Z" fill="#003137"/>
<path fill-rule="evenodd" clip-rule="evenodd" d="M181.722 56.9332C181.924 56.9317 182.088 57.0943 182.09 57.2963L182.187 70.4956C182.187 72.3414 180.317 73.5961 178.616 72.856L178.614 72.8553L168.733 68.502L163.684 74.5937L156.284 156.879C156.266 157.081 156.088 157.229 155.888 157.211C155.687 157.193 155.54 157.015 155.558 156.814L162.969 74.4144C162.975 74.3405 163.004 74.2703 163.051 74.2133L168.348 67.8223C168.452 67.6969 168.626 67.6558 168.775 67.7213L178.906 72.1845C178.906 72.1846 178.906 72.1847 178.906 72.1848C180.12 72.7123 181.457 71.8213 181.458 70.497C181.458 70.4965 181.458 70.4961 181.458 70.4956L181.361 57.3018C181.359 57.0997 181.521 56.9347 181.722 56.9332Z" fill="#BA928E"/>
<path fill-rule="evenodd" clip-rule="evenodd" d="M146.692 68.8338C146.854 68.715 147.082 68.7511 147.201 68.9145L150.116 72.9385C150.116 72.9386 150.116 72.9388 150.116 72.9389C150.724 73.7718 151.899 73.9347 152.709 73.3044L152.709 73.3039L157.812 69.3523C157.951 69.2444 158.147 69.2518 158.278 69.3699L163.575 74.1509C163.725 74.286 163.737 74.5174 163.603 74.6676C163.468 74.8179 163.238 74.8302 163.088 74.6951L158.017 70.1179L153.155 73.8828C153.155 73.8829 153.155 73.883 153.155 73.8831C152.021 74.7648 150.378 74.5375 149.528 73.3706L149.527 73.3698L146.611 69.3449C146.493 69.1815 146.529 68.9527 146.692 68.8338Z" fill="#BA928E"/>
<path d="M90.5346 46.4685C90.5346 51.1032 95.4671 98.8157 95.4671 98.8157L109.949 93.4493L120.3 105.402L135.024 96.6448L149.53 110.11L148.923 50.6397L135.656 45.566L119.887 50.4934L107.446 41.7119L90.5346 46.4685Z" fill="#EBE3D5"/>
<path d="M91.7009 82.6674L107.713 70.1539L105.697 64.7874L103.923 64.9094L102.975 62.6165L92.0411 64.4947L91.6037 60.4699L83.1723 65.9095L80.7668 75.0325C80.2565 77.7401 81.4957 80.4477 83.8283 81.8869L91.7009 82.6674Z" fill="#7B5E25"/>
<path fill-rule="evenodd" clip-rule="evenodd" d="M172.492 88.1518C172.494 87.7078 172.851 87.3511 173.294 87.3511H190.958C191.403 87.3511 191.76 87.71 191.76 88.156V113.33C191.76 113.776 191.403 114.135 190.958 114.135H172.783C172.339 114.135 171.982 113.776 171.982 113.33C171.982 113.327 171.982 113.325 171.982 113.322L172.492 88.1518ZM173.294 88.0829C173.252 88.0829 173.221 88.1142 173.221 88.156C173.221 88.1585 173.221 88.161 173.221 88.1635L172.711 113.332C172.712 113.373 172.743 113.403 172.783 113.403H190.958C191 113.403 191.031 113.371 191.031 113.33V88.156C191.031 88.1142 191 88.0829 190.958 88.0829H173.294Z" fill="#BA928E"/>
<path fill-rule="evenodd" clip-rule="evenodd" d="M198.68 78.3238C198.869 78.2537 199.079 78.3505 199.149 78.54L204.445 92.9074C204.515 93.0969 204.419 93.3074 204.23 93.3776C204.041 93.4477 203.832 93.3509 203.762 93.1614L198.465 78.794C198.395 78.6045 198.491 78.394 198.68 78.3238Z" fill="#BA928E"/>
<path fill-rule="evenodd" clip-rule="evenodd" d="M135.336 99.5785C135.533 99.6164 135.663 99.808 135.625 100.007L131.373 122.35C131.335 122.549 131.144 122.679 130.947 122.641C130.749 122.603 130.619 122.412 130.657 122.213L134.909 99.8692C134.947 99.6707 135.138 99.5406 135.336 99.5785Z" fill="#BA928E"/>
<path fill-rule="evenodd" clip-rule="evenodd" d="M111.729 98.6108C111.882 98.4796 112.112 98.4979 112.243 98.6516L130.758 120.434C130.888 120.588 130.87 120.819 130.717 120.95C130.564 121.081 130.334 121.063 130.203 120.909L111.688 99.1266C111.558 98.9729 111.576 98.7419 111.729 98.6108Z" fill="#BA928E"/>
<path fill-rule="evenodd" clip-rule="evenodd" d="M217.328 61.2999C217.529 61.2897 217.7 61.4451 217.71 61.6469L219.29 93.0162C219.3 93.218 219.145 93.3899 218.944 93.4001C218.743 93.4103 218.572 93.2549 218.561 93.0531L216.982 61.6838C216.972 61.482 217.127 61.3101 217.328 61.2999Z" fill="#BA928E"/>
<path fill-rule="evenodd" clip-rule="evenodd" d="M99.9407 313.087C99.9656 312.886 100.148 312.744 100.347 312.769L134.243 317.013C134.443 317.038 134.585 317.221 134.56 317.422C134.535 317.622 134.353 317.764 134.153 317.739L100.257 313.495C100.058 313.47 99.9158 313.287 99.9407 313.087Z" fill="#003137"/>
<path fill-rule="evenodd" clip-rule="evenodd" d="M196.523 323.766C196.523 323.968 196.361 324.132 196.16 324.133L166.905 324.255C166.704 324.256 166.54 324.093 166.539 323.891C166.538 323.689 166.701 323.524 166.902 323.524L196.157 323.402C196.358 323.401 196.522 323.564 196.523 323.766Z" fill="#003137"/>
<path fill-rule="evenodd" clip-rule="evenodd" d="M146.704 174.47C146.872 174.359 147.098 174.404 147.21 174.573L161.91 196.77C162.021 196.938 161.976 197.166 161.808 197.277C161.641 197.389 161.414 197.344 161.303 197.175L146.603 174.978C146.491 174.809 146.537 174.582 146.704 174.47Z" fill="#003137"/>
<path fill-rule="evenodd" clip-rule="evenodd" d="M135.636 45.2002C135.838 45.2027 135.999 45.3685 135.996 45.5706L135.364 96.6494C135.362 96.8514 135.197 97.0132 134.995 97.0107C134.794 97.0082 134.633 96.8424 134.636 96.6403L135.267 45.5615C135.27 45.3594 135.435 45.1977 135.636 45.2002Z" fill="#AFAAA2"/>
<path fill-rule="evenodd" clip-rule="evenodd" d="M119.885 50.1273C120.086 50.1262 120.25 50.2891 120.251 50.4912L120.543 103.546C120.544 103.748 120.382 103.913 120.18 103.914C119.979 103.915 119.815 103.752 119.814 103.55L119.522 50.4952C119.521 50.2932 119.683 50.1284 119.885 50.1273Z" fill="#AFAAA2"/>
<path fill-rule="evenodd" clip-rule="evenodd" d="M107.429 41.3709C107.63 41.3615 107.801 41.5175 107.81 41.7193L110.191 92.7493C110.201 92.9511 110.045 93.1225 109.844 93.1319C109.643 93.1414 109.473 92.9854 109.463 92.7835L107.082 41.7536C107.072 41.5517 107.228 41.3804 107.429 41.3709Z" fill="#AFAAA2"/>
<path d="M89.757 86.7657L100.011 82.4969C100.108 82.4481 100.205 82.3749 100.254 82.2774L105.308 75.7401L104.166 74.2033C104.02 74.0082 103.728 73.9594 103.534 74.1301L94.568 78.6428" fill="#7B5E25"/>
<path fill-rule="evenodd" clip-rule="evenodd" d="M152.925 27.0091C153.123 27.0456 153.254 27.2363 153.218 27.4351L152.027 33.948C152.022 33.9728 152.015 33.9972 152.006 34.0206C152.006 34.0207 152.006 34.0209 152.006 34.0211L152.004 34.0245C152.003 34.0284 152 34.0352 151.997 34.0446C151.99 34.0635 151.979 34.0927 151.967 34.1309C151.943 34.2076 151.911 34.3187 151.885 34.4525C151.831 34.7241 151.803 35.0672 151.878 35.398C151.951 35.7189 152.122 36.0322 152.485 36.273C152.856 36.5196 153.461 36.7115 154.438 36.7115H156.285C156.486 36.7115 156.65 36.8753 156.65 37.0774C156.65 37.2795 156.486 37.4433 156.285 37.4433H154.438C153.375 37.4433 152.613 37.2357 152.082 36.8833C151.543 36.5249 151.276 36.0393 151.167 35.5613C151.061 35.0932 151.105 34.6375 151.17 34.31C151.203 34.1441 151.242 34.0056 151.273 33.9075C151.289 33.8584 151.303 33.819 151.313 33.791C151.314 33.7879 151.315 33.7849 151.316 33.782L152.501 27.303C152.537 27.1042 152.727 26.9727 152.925 27.0091Z" fill="#523F0F"/>
<path fill-rule="evenodd" clip-rule="evenodd" d="M171.003 34.7112C171.205 34.7076 171.371 34.8685 171.374 35.0706L171.01 35.077C171.374 35.0706 171.374 35.0708 171.374 35.0711L171.374 35.072L171.374 35.0749L171.374 35.0847C171.374 35.093 171.374 35.1049 171.374 35.1204C171.374 35.1512 171.374 35.196 171.373 35.2539C171.371 35.3696 171.366 35.5375 171.353 35.7504C171.329 36.1761 171.275 36.7821 171.159 37.5101C170.927 38.9643 170.447 40.9137 169.448 42.884C168.449 44.8562 166.929 46.8528 164.62 48.3895C162.31 49.9271 159.229 50.9913 155.131 51.1274C154.93 51.1341 154.761 50.9758 154.755 50.7738C154.748 50.5718 154.906 50.4027 155.107 50.396C159.087 50.2638 162.033 49.2332 164.217 47.7796C166.402 46.3252 167.845 44.4342 168.799 42.5522C169.753 40.6685 170.216 38.7973 170.439 37.3946C170.551 36.694 170.602 36.1124 170.626 35.7076C170.638 35.5052 170.642 35.3472 170.644 35.2407C170.645 35.1875 170.646 35.1472 170.646 35.1207C170.646 35.1074 170.645 35.0976 170.645 35.0914L170.645 35.0847L170.645 35.0835" fill="#523F0F"/>
<path fill-rule="evenodd" clip-rule="evenodd" d="M172.37 96.6202C172.37 96.4182 172.534 96.2543 172.735 96.2543H190.983C191.184 96.2543 191.347 96.4182 191.347 96.6202C191.347 96.8223 191.184 96.9861 190.983 96.9861H172.735C172.534 96.9861 172.37 96.8223 172.37 96.6202Z" fill="#BA928E"/>
<path d="M189.938 22.5878C189.938 22.5878 178.421 18.6118 178.421 17.2702C178.421 15.9286 179.611 15.148 181.871 15.0016C184.131 14.8797 191.274 17.3922 191.274 17.3922L189.938 22.5878Z" fill="#7B5E25"/>
<path fill-rule="evenodd" clip-rule="evenodd" d="M178.881 15.3588C178.979 15.1827 179.202 15.1204 179.377 15.2196L186.603 19.3064C186.64 19.3107 186.689 19.3165 186.751 19.3234C186.891 19.3392 187.091 19.3605 187.332 19.383C187.814 19.4279 188.456 19.4767 189.1 19.4932C189.748 19.5098 190.378 19.4929 190.845 19.4133C191.08 19.373 191.248 19.3209 191.35 19.2659C191.395 19.2418 191.415 19.2241 191.424 19.2149C191.434 19.0881 191.385 18.9596 191.255 18.8168C191.116 18.664 190.907 18.5232 190.669 18.4013C190.434 18.2815 190.192 18.1906 190.007 18.1294C189.915 18.099 189.838 18.0764 189.785 18.0615C189.758 18.0541 189.738 18.0487 189.724 18.0452C189.718 18.0435 189.713 18.0422 189.71 18.0415L189.707 18.0407C189.707 18.0407 189.706 18.0406 189.706 18.0406C189.706 18.0406 189.707 18.0406 189.792 17.685C189.878 17.3293 189.878 17.3293 189.878 17.3293L189.879 17.3295L189.881 17.33L189.886 17.3315C189.891 17.3327 189.898 17.3345 189.907 17.3367C189.925 17.3413 189.949 17.3479 189.981 17.3566C190.043 17.374 190.13 17.3998 190.234 17.4342C190.327 17.4647 190.433 17.5023 190.548 17.5473C190.69 17.6032 190.845 17.6703 190.999 17.7491C191.274 17.8896 191.57 18.078 191.794 18.3231C192.021 18.5729 192.193 18.9066 192.147 19.3118L192.147 19.3128C192.112 19.6148 191.896 19.8022 191.694 19.9109C191.49 20.0206 191.233 20.0892 190.967 20.1347C190.429 20.2266 189.742 20.2417 189.081 20.2248C188.416 20.2077 187.756 20.1574 187.264 20.1116C187.018 20.0887 186.813 20.0668 186.67 20.0507C186.598 20.0426 186.541 20.0359 186.502 20.0312C186.483 20.0289 186.468 20.027 186.458 20.0258L186.446 20.0243L186.443 20.0239L186.442 20.0238C186.442 20.0238 186.442 20.0238 186.488 19.6608L186.442 20.0238C186.395 20.0178 186.35 20.0028 186.309 19.9796L179.019 15.8572C178.844 15.758 178.782 15.5349 178.881 15.3588ZM190.548 17.5473L192.668 15.8487C192.825 15.7227 192.851 15.4925 192.725 15.3345C192.6 15.1766 192.371 15.1507 192.213 15.2768L189.565 17.399C189.456 17.4861 189.406 17.6279 189.436 17.7642C189.466 17.9006 189.571 18.0078 189.706 18.0406M191.429 19.2078C191.429 19.2078 191.429 19.2091 191.427 19.2115C191.428 19.209 191.429 19.2078 191.429 19.2078Z" fill="#523F0F"/>
<path fill-rule="evenodd" clip-rule="evenodd" d="M185.057 6.95629C185.176 7.11977 185.139 7.34859 184.977 7.46738L178.489 12.1996C178.326 12.3184 178.098 12.2822 177.98 12.1187C177.862 11.9552 177.898 11.7264 178.061 11.6076L184.548 6.87536C184.711 6.75658 184.939 6.79281 185.057 6.95629Z" fill="#523F0F"/>
<path fill-rule="evenodd" clip-rule="evenodd" d="M104.097 64.8629C104.163 65.0539 104.062 65.2623 103.872 65.3284L86.2558 71.451C86.0656 71.5171 85.858 71.4159 85.7922 71.225C85.7263 71.034 85.8272 70.8256 86.0174 70.7595L103.633 64.6369C103.824 64.5708 104.031 64.672 104.097 64.8629Z" fill="#523F0F"/>
<path fill-rule="evenodd" clip-rule="evenodd" d="M186.126 10.5422C186.245 10.7057 186.209 10.9345 186.046 11.0533L179.558 15.7855C179.395 15.9043 179.167 15.8681 179.049 15.7046C178.931 15.5411 178.967 15.3123 179.13 15.1935L185.617 10.4613C185.78 10.3425 186.008 10.3787 186.126 10.5422Z" fill="#523F0F"/>
<path fill-rule="evenodd" clip-rule="evenodd" d="M189.564 12.526C189.691 12.6825 189.668 12.913 189.512 13.0408L183.681 17.8218C183.525 17.9496 183.295 17.9264 183.168 17.7699C183.041 17.6134 183.064 17.3829 183.22 17.255L189.051 12.474C189.207 12.3462 189.437 12.3695 189.564 12.526Z" fill="#523F0F"/>
<path fill-rule="evenodd" clip-rule="evenodd" d="M190.6 19.6742C190.74 19.5293 190.971 19.526 191.115 19.6668C193.638 22.1283 195.794 22.6123 197.336 22.5186C198.115 22.4712 198.754 22.2754 199.226 22.0893C199.445 22.0029 199.626 21.9191 199.774 21.8509C199.786 21.8454 199.798 21.84 199.809 21.8348C199.884 21.8005 199.956 21.7673 200.017 21.7429L200.019 21.7425C200.062 21.725 200.162 21.6855 200.265 21.6855C200.466 21.6855 200.629 21.8493 200.629 22.0514C200.629 22.2385 200.489 22.3928 200.309 22.4146C200.303 22.4165 200.296 22.4193 200.286 22.4231C200.246 22.4392 200.191 22.464 200.113 22.4998C200.102 22.5052 200.09 22.5107 200.078 22.5163C199.93 22.5845 199.731 22.6761 199.492 22.7704C198.973 22.9753 198.257 23.1957 197.38 23.249C195.611 23.3566 193.26 22.7795 190.607 20.1916C190.463 20.0508 190.46 19.8191 190.6 19.6742ZM200.32 22.4111C200.32 22.4111 200.319 22.4112 200.319 22.4113C200.319 22.4111 200.32 22.4111 200.32 22.4111Z" fill="#523F0F"/>
<path fill-rule="evenodd" clip-rule="evenodd" d="M106.848 68.0134C106.939 68.1938 106.867 68.4139 106.687 68.505L91.4763 76.2131C91.2966 76.3042 91.0774 76.2318 90.9867 76.0514C90.896 75.871 90.9682 75.6509 91.1478 75.5599L106.358 67.8517C106.538 67.7606 106.757 67.833 106.848 68.0134Z" fill="#523F0F"/>
<path fill-rule="evenodd" clip-rule="evenodd" d="M92.1853 64.2905C92.2037 64.4917 92.0562 64.6699 91.8558 64.6884L87.8952 65.0543C87.6947 65.0728 87.5173 64.9247 87.4988 64.7235C87.4804 64.5222 87.6279 64.3441 87.8284 64.3256L91.789 63.9597C91.9894 63.9412 92.1669 64.0893 92.1853 64.2905Z" fill="#523F0F"/>
<path fill-rule="evenodd" clip-rule="evenodd" d="M93.9414 84.8148C94.1424 84.8042 94.3139 84.9591 94.3245 85.1609C94.4506 87.5658 93.7416 89.3158 92.1761 90.408C92.0108 90.5233 91.7837 90.4823 91.6688 90.3163C91.554 90.1504 91.5949 89.9224 91.7602 89.8071C93.0618 88.899 93.7135 87.4292 93.5966 85.1994C93.586 84.9976 93.7404 84.8254 93.9414 84.8148Z" fill="#523F0F"/>
<path fill-rule="evenodd" clip-rule="evenodd" d="M101.535 75.3021C101.641 75.4734 101.59 75.6991 101.419 75.8064L97.8472 78.0505C97.6766 78.1577 97.4517 78.1058 97.3449 77.9345C97.2381 77.7632 97.2899 77.5374 97.4605 77.4302L101.032 75.186C101.203 75.0788 101.428 75.1308 101.535 75.3021Z" fill="#523F0F"/>
</g>
<defs>
<clipPath id="clip0_1412_17520">
<rect width="720" height="358.454" fill="white"/>
</clipPath>
</defs>
</svg>
